<svg height="96" width="96" xmlns="http://www.w3.org/2000/svg" xmlns:xlink="http://www.w3.org/1999/xlink"><linearGradient id="a" gradientUnits="userSpaceOnUse" x1="48.382686" x2="48.382686" y1="89.808657" y2="5.796374"><stop offset="0" stop-color="#ebebeb"/><stop offset="1" stop-color="#fafafa"/></linearGradient><linearGradient id="b" gradientTransform="matrix(1.0058652 0 0 .994169 100 0)" gradientUnits="userSpaceOnUse" x1="45.447727" x2="45.447727" y1="92.539597" y2="7.01654"><stop offset="0"/><stop offset="1" stop-opacity=".588235"/></linearGradient><linearGradient id="c" gradientTransform="matrix(1.0238095 0 0 1.0119048 -1.142857 -98.071429)" gradientUnits="userSpaceOnUse" x1="32.251034" x2="32.251034" xlink:href="#b" y1="6.131708" y2="90.238609"/><linearGradient id="d" gradientTransform="translate(0 -97)" gradientUnits="userSpaceOnUse" x1="32.251034" x2="32.251034" xlink:href="#b" y1="6.131708" y2="90.238609"/><linearGradient id="e"><stop offset="0" stop-color="#fff"/><stop offset="1" stop-color="#fff" stop-opacity="0"/></linearGradient><radialGradient id="f" cx="48" cy="90.171875" gradientTransform="matrix(1.1573129 0 0 .99590774 -7.551021 .197132)" gradientUnits="userSpaceOnUse" r="42" xlink:href="#e"/><linearGradient id="g" gradientUnits="userSpaceOnUse" x1="36.357143" x2="36.357143" xlink:href="#e" y1="6" y2="63.893143"/><linearGradient id="h" gradientUnits="userSpaceOnUse" x1="131.361093" x2="131.361093" y1="64.928179" y2="31.120215"><stop offset="0" stop-color="#2727d8"/><stop offset="1" stop-color="#5e5ee2"/></linearGradient><g><g fill="url(#c)"><path d="m12-95.03125c-5.5110903 0-10.03125 4.52016-10.03125 10.03125v71c0 5.5110902 4.5201598 10.03125 10.03125 10.03125h72c5.51109 0 10.03125-4.5201597 10.03125-10.03125v-71c0-5.51109-4.52016-10.03125-10.03125-10.03125z" opacity=".08" transform="scale(1 -1)"/><path d="m12-94.03125c-4.971633 0-9.03125 4.059617-9.03125 9.03125v71c0 4.9716329 4.0596171 9.03125 9.03125 9.03125h72c4.971633 0 9.03125-4.059617 9.03125-9.03125v-71c0-4.971633-4.059617-9.03125-9.03125-9.03125z" opacity=".1" transform="scale(1 -1)"/><path d="m12-93c-4.4091333 0-8 3.590867-8 8v71c0 4.4091333 3.5908667 8 8 8h72c4.409133 0 8-3.5908667 8-8v-71c0-4.409133-3.590867-8-8-8z" opacity=".2" transform="scale(1 -1)"/><rect height="85" opacity=".3" rx="7" transform="scale(1 -1)" width="86" x="5" y="-92"/></g><rect fill="url(#d)" height="84" opacity=".45" rx="6" transform="scale(1 -1)" width="84" x="6" y="-91"/></g><g><rect fill="url(#a)" height="84" rx="6" width="84" x="6.382686" y="5.808657"/><path d="m12 6c-3.324 0-6 2.676-6 6v2 68 2c0 .334721.04135.6507.09375.96875.0487.295596.09704.596915.1875.875.0099.03038.02089.0636.03125.09375.09886.287771.23488.547452.375.8125.144592.273507.315616.535615.5.78125s.373776.473472.59375.6875c.439947.428056.94291.814526 1.5 1.09375.278545.139612.573473.246947.875.34375-.256202-.100222-.486711-.236272-.71875-.375-.0074-.0044-.02387.0045-.03125 0-.03193-.0193-.06229-.04251-.09375-.0625-.120395-.0767-.231023-.163513-.34375-.25-.106173-.0808-.213281-.161112-.3125-.25-.17793-.161433-.34746-.345388-.5-.53125-.107579-.130255-.218394-.265285-.3125-.40625-.02509-.03838-.03845-.08587-.0625-.125-.06476-.103032-.130228-.204517-.1875-.3125-.101008-.194706-.205675-.415701-.28125-.625-.008-.02181-.02359-.04055-.03125-.0625-.03183-.09195-.0358-.186831-.0625-.28125-.030332-.106618-.070389-.203031-.09375-.3125-.072879-.341512-.125-.698205-.125-1.0625v-2-68-2c0-2.781848 2.218152-5 5-5h2 68 2c2.781848 0 5 2.218152 5 5v2 68 2c0 .364295-.05212.720988-.125 1.0625-.04415.206893-.08838.397658-.15625.59375-.0077.02195-.0233.04069-.03125.0625-.06274.173739-.138383.367449-.21875.53125-.04158.0828-.07904.169954-.125.25-.0546.09721-.126774.18835-.1875.28125-.09411.140965-.204921.275995-.3125.40625-.143174.17445-.303141.346998-.46875.5-.01117.0102-.01998.02115-.03125.03125-.138386.125556-.285091.234436-.4375.34375-.102571.07315-.204318.153364-.3125.21875-.0074.0045-.02384-.0044-.03125 0-.232039.138728-.462548.274778-.71875.375.301527-.0968.596455-.204138.875-.34375.55709-.279224 1.060053-.665694 1.5-1.09375.219973-.214028.409366-.441865.59375-.6875s.355408-.507743.5-.78125c.14012-.265048.276135-.524729.375-.8125.01041-.03078.02133-.06274.03125-.09375.09046-.278085.1388-.579404.1875-.875.0524-.31805.09375-.634029.09375-.96875v-2-68-2c0-3.324-2.676-6-6-6z" fill="url(#g)" opacity=".5"/><path d="m12 90c-3.324 0-6-2.676-6-6v-2-68-2c0-.334721.04135-.6507.09375-.96875.0487-.295596.09704-.596915.1875-.875.00988-.03038.020892-.0636.03125-.09375.098865-.287771.2348802-.547452.375-.8125.1445918-.273507.3156161-.535615.5-.78125s.3737765-.473472.59375-.6875c.439947-.428056.94291-.814526 1.5-1.09375.278545-.139612.5734731-.246947.875-.34375-.2562018.100222-.4867109.236272-.71875.375-.00741.0044-.023866-.0045-.03125 0-.031933.0193-.062293.04251-.09375.0625-.120395.0767-.2310226.163513-.34375.25-.1061728.0808-.2132809.161112-.3125.25-.1779299.161433-.3474596.345388-.5.53125-.1075789.130255-.2183939.265285-.3125.40625-.025089.03838-.038446.08587-.0625.125-.064763.103032-.1302275.204517-.1875.3125-.1010083.194706-.2056748.415701-.28125.625-.00796.02181-.023589.04055-.03125.0625-.0318251.09195-.0358045.186831-.0625.28125-.0303323.106618-.0703894.203031-.09375.3125-.0728786.341512-.125.698205-.125 1.0625v2 68 2c0 2.781848 2.2181517 5 5 5h2 68 2c2.781848 0 5-2.218152 5-5v-2-68-2c0-.364295-.05212-.720988-.125-1.0625-.04415-.206893-.08838-.397658-.15625-.59375-.0077-.02195-.0233-.04069-.03125-.0625-.06274-.173739-.138383-.367449-.21875-.53125-.04158-.0828-.07904-.169954-.125-.25-.0546-.09721-.126774-.18835-.1875-.28125-.09411-.140965-.204921-.275995-.3125-.40625-.143174-.17445-.303141-.346998-.46875-.5-.01117-.0102-.01998-.02115-.03125-.03125-.138386-.125556-.285091-.234436-.4375-.34375-.102571-.07315-.204318-.153364-.3125-.21875-.0074-.0045-.02384.0044-.03125 0-.232039-.138728-.462548-.274778-.71875-.375.301527.0968.596455.204138.875.34375.55709.279224 1.060053.665694 1.5 1.09375.219973.214028.409366.441865.59375.6875s.355408.507743.5.78125c.14012.265048.276135.524729.375.8125.01041.03078.02133.06274.03125.09375.09046.278085.1388.579404.1875.875.0524.31805.09375.634029.09375.96875v2 68 2c0 3.324-2.676 6-6 6z" fill="url(#f)" opacity=".4"/><path d="m112 8h16v16h-16z" fill="#fff" stroke="#000" stroke-dashoffset="8.6" stroke-linecap="round" stroke-width=".5"/><text font-family="Liberation Sans" font-size="4" x="131.39261" y="11.969256"><tspan x="131.39261" y="11.969256">Width: 2px</tspan><tspan x="131.39261" y="16.969257">Blur: 12</tspan><tspan x="131.39261" y="21.969257">Opacity: 60</tspan></text><rect fill="#f0f" height="84" rx="6" width="84" x="-94" y="6"/></g><g><path d="m63.78125 27.3125c-.961838.06091-1.910578.262362-2.625.125a.31302056.31302056 0 0 0 -.0625 0c-1.822202.02946-3.667316-.03786-5.5-.09375a.31302056.31302056 0 0 0 -.03125 0c-1.039221.13961-1.671181.931754-1.875 1.8125s-.06902 1.870678.375 2.59375c.278566.45092.699904.708862 1.125.8125s.876502.08982 1.28125.09375c.404748.0039.783151.02894 1.0625.125s.475597.233127.625.59375a.31302056.31302056 0 0 0 .03125.0625l7.03125 10.25c-2.355443 3.352033-4.555933 6.830006-7 10.0625-.471789.604171-1.077695.767483-1.8125.875s-1.556095.123366-2.3125.5a.31302056.31302056 0 0 0 -.0625.03125c-.627251.473374-.913182 1.216399-.96875 1.96875-.05557.752351.09249 1.520479.46875 2.125a.31302056.31302056 0 0 0 .03125.03125c.363167.45277.924982.690864 1.5.75-.123174 1.439277-.857731 2.455255-1.9375 3.09375-1.145036.677089-2.678841.90545-4.09375.71875a.31302056.31302056 0 0 0 -.03125 0h-5.21875v-8.96875c.663047.03315 1.360809-.02667 2-.03125.710011-.0051 1.281224.124908 1.6875.5.153094.593159.151979 1.434103.25 2.25.05122.426361.123231.845608.34375 1.21875.216399.36617.577942.669284 1.0625.84375.0092.0033.02192-.0032.03125 0 .767538.296573 1.669003.246667 2.375-.125.706893-.372139 1.224935-1.100916 1.15625-2.03125-.000783-.0106.000939-.02059 0-.03125-.04252-3.670123.08638-7.383966-.0625-11.0625a.31302056.31302056 0 0 0 0-.0625c-.140442-.619125-.540004-1.072159-1.03125-1.34375s-1.092687-.394076-1.65625-.34375c-.563563.05033-1.108674.259664-1.53125.625s-.697185.906615-.6875 1.5625a.31302056.31302056 0 0 0 0 .09375c.178062.643029.178012 1.13457.0625 1.5s-.340329.618639-.65625.8125c-.631843.387722-1.654043.455669-2.6875.28125a.31302056.31302056 0 0 0 -.15625 0c-.323308.0977-.407959.05571-.4375.03125-.02954-.02446-.08547-.131934-.09375-.34375-.01597-.408503.121251-1.018771.03125-1.5625v-.0625-5.6875c3.024652.09986 6.044648-.317009 8.84375.53125.0098.003.02141-.003.03125 0 1.045305.602318 1.414846 1.600088 1.625 2.78125.214502 1.2056.239056 2.563365.71875 3.71875a.31302056.31302056 0 0 0 .03125.03125c.584331.918737 1.758059 1.229232 2.78125 1.03125.511595-.09899.979781-.324835 1.34375-.6875s.60602-.870671.59375-1.46875a.31302056.31302056 0 0 0 0-.03125c-.357324-3.282117-.610037-6.628363-1.125-9.90625a.31302056.31302056 0 0 0 -.03125-.0625c-.206598-.50304-.517557-.848156-.90625-1.0625s-.84285-.283379-1.28125-.3125c-.876799-.05824-1.792297.07103-2.46875 0a.31302056.31302056 0 0 0 -.03125 0h-13.4375c-.247644-2.526044-.234727-5.153044-.6875-7.6875a.31302056.31302056 0 0 0 -.03125-.0625c-.190977-.459734-.483461-.795637-.84375-1s-.780259-.276016-1.1875-.3125c-.814482-.07297-1.652354.04481-2.28125 0a.31302056.31302056 0 0 0 -.03125 0c-7.343398.021063-14.690048-.042029-22.03125.03125a.31302056.31302056 0 0 0 -.0625 0c-.861001.147204-1.350697.76049-1.59375 1.4375-.239259.666442-.281966 1.410658-.28125 2.03125.000011.0098-.000026.02147 0 .03125-.165302 2.699168-.511021 5.458707-.5625 8.1875a.31302056.31302056 0 0 0 0 .0625c.458696 2.448949 4.665383 2.380719 5-.09375.179316-1.27839.186947-2.982218.59375-4.28125.203402-.649516.507325-1.190523.9375-1.53125.424034-.335863.995099-.499567 1.84375-.40625.0098.0022.02144-.002.03125 0 .353228.07135.721855.04395 1.125 0 .414344-.04518.842435-.12103 1.1875-.125.345065-.004.601771.07422.6875.15625.04286.04102.04933.0802.0625.1875.01317.107305.0039.268258-.0625.5a.31302056.31302056 0 0 0 0 .09375v21c-.622541.0998-1.428224.007-2.25.03125-.455379.01346-.896952.06427-1.3125.25-.415548.185726-.795445.537327-1.03125 1.03125-.265307.701635-.369914 1.589152-.15625 2.375s.778012 1.505519 1.71875 1.65625a.31302056.31302056 0 0 0 .0625 0c4.332438-.056033 8.725232.02641 13.0625-.03125a.31302056.31302056 0 0 0 .09375 0c.918878-.274198 1.414749-1.0983 1.5625-1.9375s-.000393-1.727655-.40625-2.40625a.31302056.31302056 0 0 0 -.03125-.03125c-.586149-.782913-1.483533-.913773-2.3125-.90625-.737885.0067-1.452481.08721-2-.03125v-21.875c.95047.03855 1.978311-.05669 2.90625 0 1.021481.06241 1.874662.311603 2.46875 1.0625.132303.679889.44053 1.437546.53125 2 .04752.294633.0438.503416-.03125.625s-.229739.218208-.625.25a.31302056.31302056 0 0 0 -.125.03125c-.690871.405831-1.015096 1.121059-1.09375 1.84375-.07865.722691.04884 1.48342.25 2.09375a.31302056.31302056 0 0 0 .03125.0625c.347095.672289.986713.974869 1.625 1.09375.530227.09875 1.049396.07407 1.53125.0625v21.875c-.602858-.04742-1.260548-.05097-1.875.15625-.720541.243001-1.369489.797025-1.5 1.6875-.0015.01033.0014.02083 0 .03125-.138278.674322-.121515 1.452027.15625 2.125.281896.682983.874488 1.259035 1.75 1.3125a.31302056.31302056 0 0 0 .03125 0c7.386112.05204 14.798082.0522 22.1875 0a.31302056.31302056 0 0 0 .0625 0c.512868-.09298.9093-.312176 1.1875-.625s.428576-.698829.53125-1.09375c.205348-.789842.212096-1.672524.34375-2.3125a.31302056.31302056 0 0 0 0-.03125l.71875-5.03125c.643309-.01506 1.43753.120792 2.25.09375.451302-.01502.907305-.07975 1.3125-.28125.405195-.201495.747652-.560519.96875-1.0625a.31302056.31302056 0 0 0 0-.03125c.25596-.725369.327267-1.575173.09375-2.34375-.190658-.627515-.62667-1.209022-1.25-1.5l4.59375-6.65625c1.546391 2.320568 3.247463 4.65144 4.625 6.90625-.594206.393393-.938132 1.043432-1.03125 1.71875-.10927.792454.05811 1.633946.40625 2.28125a.31302056.31302056 0 0 0 .03125.03125c.6873.868241 1.702732.991542 2.65625.9375.953518-.05404 1.914145-.237541 2.625-.09375a.31302056.31302056 0 0 0 .09375 0c1.922881-.180479 4.016363.353379 6.0625-.09375a.31302056.31302056 0 0 0 .0625-.03125c.818426-.353974 1.23846-1.135422 1.34375-1.9375s-.06221-1.64141-.4375-2.28125a.31302056.31302056 0 0 0 -.03125-.03125c-.466384-.674681-1.192889-.829613-1.875-.875-.659153-.043859-1.294796-.034943-1.78125-.15625-2.868443-4.133911-5.705187-8.292715-8.5625-12.4375 2.053203-2.898012 3.988469-5.886991 6.125-8.6875.245764-.318359.553342-.486814.9375-.59375s.820371-.142858 1.28125-.1875c.460879-.04464.93549-.101119 1.375-.28125s.851773-.503518 1.09375-1.03125c.263449-.703082.368962-1.587942.15625-2.375s-.775094-1.51294-1.71875-1.65625a.31302056.31302056 0 0 0 -.0625 0c-2.753427.05634-5.563772.06784-8.3125 0a.31302056.31302056 0 0 0 -.0625 0c-.966898.188242-1.529611.953589-1.71875 1.78125s-.05735 1.734028.28125 2.4375a.31302056.31302056 0 0 0 .09375.125c.518957.384279.832558.648857.875.78125.02122.0662.01188.141469-.0625.28125s-.232452.336313-.5.59375a.31302056.31302056 0 0 0 -.03125.03125l-2.875 4.15625c-1.186768-1.753534-2.451893-3.512833-3.5625-5.21875.634852-.383315.958417-1.057084 1.0625-1.75.120412-.801628-.02026-1.652861-.375-2.3125a.31302056.31302056 0 0 0 -.03125-.03125c-.692335-.872659-1.726677-.998344-2.6875-.9375z" opacity=".04"/><path d="m55.6875 28.53125a.96401889.96401889 0 0 0 -.84375.96875v1a.96401889.96401889 0 0 0 .96875.96875c1.12869 0 1.810311.0335 2.1875.15625s.570411.283759.96875.84375l7.6875 11.21875-6.875 10.03125v.03125c-1.532617 2.198873-3.790921 2.21875-4.53125 2.21875a.96401889.96401889 0 0 0 -.96875.96875v1a.96401889.96401889 0 0 0 1.0625.96875c.298453-.02478.772618-.02326 1.1875-.03125-.365012 1.934476-.795534 3.488477-1.59375 4.40625-.965127 1.109684-2.546583 1.75-5.78125 1.75h-5.78125c-.367125 0-.602507-.01107-.75-.03125-.0135-.12804-.03125-.321531-.03125-.625v-10.6875h2.96875c1.849655 0 2.510717.298897 2.84375.75s.5 1.49485.5 3.21875a.96401889.96401889 0 0 0 .96875.96875h.65625a.96401889.96401889 0 0 0 .96875-.96875v-10.8125a.96401889.96401889 0 0 0 -.96875-.96875h-.65625a.96401889.96401889 0 0 0 -.96875.96875c0 1.693854-.140937 2.689949-.46875 3.125s-1.022497.75-2.875.75h-2.96875v-9.34375c0-.31095.01669-.502278.03125-.625.145274-.02102.385275-.03125.75-.03125h5.6875c3.095854 0 4.513001.585023 5.34375 1.625s1.179636 2.865949 1.46875 5.59375a.96401889.96401889 0 0 0 .96875.875h.75a.96401889.96401889 0 0 0 .96875-1.0625l-1-9.21875a.96401889.96401889 0 0 0 -.96875-.875h-17.21875l-.625-8.15625a.96401889.96401889 0 0 0 -.96875-.90625h-24.0625a.96401889.96401889 0 0 0 -.96875.90625l-.71875 9.21875a.96401889.96401889 0 0 0 .96875 1.03125h.75a.96401889.96401889 0 0 0 .96875-.90625c.267486-3.428839.627329-5.275801 1.34375-6.09375.35821-.408974.811465-.65063 1.65625-.84375s2.039707-.28125 3.625-.28125h2.09375c.0072.08694.03125.237162.03125.625v22.6875c0 .364373-.0085.630268-.03125.71875-.02274.08848.01061.004-.03125.03125-.08373.05444-.880735.25-2.59375.25h-1.1875a.96401889.96401889 0 0 0 -.96875.96875v1a.96401889.96401889 0 0 0 1 .96875c1.993964-.03878 4.056358-.0625 6.09375-.0625 2.030637 0 4.101537.02373 6.09375.0625a.96401889.96401889 0 0 0 1-.96875v-1a.96401889.96401889 0 0 0 -.96875-.96875h-1.15625c-1.686299 0-2.477378-.194502-2.5625-.25-.04256-.02775-.008.02632-.03125-.0625-.02322-.08882-.03125-.325356-.03125-.6875v-22.6875c0-.383881.02245-.54603.03125-.625h2.03125c1.550322 0 2.725013.09095 3.5625.28125.837487.190299 1.324576.440756 1.6875.84375.630118.699688.959527 2.345047 1.21875 4.90625h-1.125a.96401889.96401889 0 0 0 -.96875.96875v1.125a.96401889.96401889 0 0 0 .96875.96875c1.475763 0 2.293001.08513 2.375.125.02595.07709.0625.351941.0625.78125v22.5c0 .429946-.03662.703907-.0625.78125-.08013.03902-.895847.125-2.375.125a.96401889.96401889 0 0 0 -.96875.96875v1a.96401889.96401889 0 0 0 .96875.96875h21.6875a.96401889.96401889 0 0 0 .96875-.84375l1.1875-8.3125c1.1364.0049 2.676579.03103 3.5.09375a.96401889.96401889 0 0 0 1.03125-.96875v-1a.96401889.96401889 0 0 0 -.875-.96875c-.441807-.04262-.571363-.144418-.65625-.25-.08489-.105582-.125-.277395-.125-.4375 0-.304826.01695-.278359.21875-.5625a.96401889.96401889 0 0 0 0-.03125l5.875-8.5625 6.46875 9.5a.96401889.96401889 0 0 0 .03125.03125c.0514.07225.03807.05281.0625.09375-.09632.07854-.307559.187209-.84375.21875a.96401889.96401889 0 0 0 -.90625.96875v1a.96401889.96401889 0 0 0 1.03125.96875c1.269563-.07525 3.275174-.0625 4.65625-.0625 1.088675 0 3.227235-.0077 4.125.0625a.96401889.96401889 0 0 0 1.03125-.96875v-1a.96401889.96401889 0 0 0 -.96875-.96875c-1.310673 0-2.001244-.07399-2.3125-.1875-.311256-.113514-.426781-.233326-.8125-.78125l-8.8125-12.8125 5.8125-8.375c.631021-.894124 1.420765-2.302868 4.5-2.34375a.96401889.96401889 0 0 0 .96875-.96875v-1a.96401889.96401889 0 0 0 -1.0625-.96875c-.876864.07268-2.447229.09375-3.4375.09375-1.366453 0-3.095185-.02006-4.0625-.09375a.96401889.96401889 0 0 0 -1.03125.96875v1a.96401889.96401889 0 0 0 .875.96875c.469995.04384.581127.15442.65625.25.07512.09558.125.255664.125.4375 0 .235321-.03897.30522-.3125.6875l-4.71875 6.84375-5.375-7.875h.03125c-.04617-.07249-.03128-.0728-.0625-.125.107346-.08905.294791-.205099.78125-.21875a.96401889.96401889 0 0 0 .9375-.96875v-1a.96401889.96401889 0 0 0 -1.03125-.96875c-1.283644.07608-3.321047.09375-4.6875.09375-1.07006 0-3.181041-.02201-4.09375-.09375a.96401889.96401889 0 0 0 -.1875 0z" opacity=".06"/><path d="m140.52799 53.435437-4.464-1.439999c-.22402 1.280011-.54402 2.48001-.96 3.6-.38402 1.120007-.88002 2.096006-1.488 2.927999-.60802.832006-1.34402 1.488005-2.208 1.968-.83202.480004-1.82402.720004-2.976.720001-1.72802.000003-3.13601-.447997-4.224-1.344001-1.05601-.927994-1.88801-2.095993-2.496-3.504-.60801-1.40799-1.02401-2.927988-1.248-4.56-.22401-1.663985-.33601-3.247984-.336-4.752-.00001-1.503981.11199-3.055979.336-4.656.25599-1.599976.68799-3.055974 1.296-4.368.63999-1.343972 1.50399-2.447971 2.592-3.312 1.08799-.863969 2.47998-1.295968 4.176-1.296.99198.000032 1.83998.176031 2.544.528.73598.320031 1.37598.80003 1.92 1.440001.54398.608028.99198 1.344027 1.344 2.207999.38398.864027.71998 1.840026 1.008 2.928l4.512-1.248c-.38403-1.535973-.89603-2.927971-1.536-4.176-.64003-1.279969-1.44003-2.367968-2.4-3.264-.92802-.927966-2.00002-1.631965-3.216-2.111999-1.21602-.511965-2.59202-.767965-4.128-.768-1.66402.000035-3.15201.272035-4.464.815999-1.28001.512035-2.41601 1.232034-3.408 2.16-.96001.928032-1.77601 2.000031-2.448 3.216001-.67201 1.184028-1.21601 2.448026-1.632 3.791999-.416 1.344025-.72 2.720023-.912 4.128-.16 1.408021-.24 2.752019-.24 4.032 0 1.344017.08 2.752015.24 4.224.16 1.440012.432 2.848011.816 4.224.41599 1.376008.94399 2.688007 1.584 3.936.67199 1.216004 1.48799 2.288003 2.448 3.216001.99199.928 2.15999 1.664 3.504 2.207999 1.34399.544 2.87998.815999 4.608.816001 1.79198-.000002 3.34398-.336001 4.656-1.008001 1.34398-.671999 2.49598-1.567998 3.456-2.688.95997-1.151996 1.72797-2.463995 2.304-3.936.60797-1.471992 1.08797-3.02399 1.44-4.656" fill="url(#h)"/><g opacity=".12" transform="matrix(1.6829755 0 0 1.6829755 13 29.506672)"><path d="m14.718.0350342h-14.300001l-.417999 5.4769858h.445c.319999-4.10199.672-4.820003 4.512-4.820003h1.367c.473.074035.473.375003.473.945003v13.47998c0 .895-.075 1.168-2.161 1.168h-.703v.5981c1.188-.0231 2.426-.0471 3.641-.0471 1.211 0 2.453.024 3.64.0471v-.5981h-.691c-2.05501 0-2.129-.273-2.129-1.168v-13.47998c0-.54699 0-.84399.446-.945003h1.359c3.789 0 4.16.713993 4.48 4.820003h.446"/><path d="m27.144 16.02h-.445c-.543 3.672-.863 5.668-5.219 5.668h-3.437c-.989 0-1.036-.125-1.036-.977v-6.922h2.336c2.336 0 2.559.856 2.559 2.946h.398v-6.442h-.398c0 2.055-.223 2.895-2.559 2.895h-2.336v-6.13697c0-.836.047-.961 1.036-.961h3.386c3.832 0 4.278 1.52301 4.625 4.79697h.446l-.594-5.47697h-12.539v.68c1.754 0 2.035 0 2.035 1.11297v13.364c0 1.1131-.277 1.1131-2.035 1.1131v.5979h12.887"/><path d="m33.82 7.51202 3.664-5.29699c.367-.52002 1.113-1.59003 3.145-1.617008v-.598022c-.567.0469971-1.508.0469971-2.102.0469971-.816 0-1.832 0-2.449-.0469971v.598022c.793.073975.988.570008.988.968998 0 .29602-.121.49603-.297.742l-3.269 4.74201-3.664-5.36298c-.172-.27002-.196-.34802-.196-.422 0-.22302.27-.645017 1.09-.668028v-.598022c-.793.0469971-2.004.0469971-2.82.0469971-.641 0-1.879 0-2.477-.0469971v.598022c1.36 0 1.805.051026 2.352.820008l4.777 7.01599-4.308 6.29308c-1.063 1.539-2.672 1.5659-3.145 1.5659v.5981c.566-.047 1.508-.047 2.102-.047.668 0 1.832 0 2.449.047v-.5981c-.766-.0739-.988-.57-.988-.969 0-.32.121-.496.246-.672l3.961-5.78097 4.308 6.33197c.195.2741.195.348.195.422 0 .195-.222.621-1.089.672v.598c.793-.047 2.004-.047 2.82-.047.641 0 1.879 0 2.48.047v-.598c-1.586 0-1.836-.121-2.328-.8199"/></g><g fill="#333" transform="matrix(1.6829755 0 0 1.6829755 13 28.506672)"><path d="m14.718.0350342h-14.300001l-.417999 5.4769858h.445c.319999-4.10199.672-4.820003 4.512-4.820003h1.367c.473.074035.473.375003.473.945003v13.47998c0 .895-.075 1.168-2.161 1.168h-.703v.5981c1.188-.0231 2.426-.0471 3.641-.0471 1.211 0 2.453.024 3.64.0471v-.5981h-.691c-2.05501 0-2.129-.273-2.129-1.168v-13.47998c0-.54699 0-.84399.446-.945003h1.359c3.789 0 4.16.713993 4.48 4.820003h.446"/><path d="m27.144 16.02h-.445c-.543 3.672-.863 5.668-5.219 5.668h-3.437c-.989 0-1.036-.125-1.036-.977v-6.922h2.336c2.336 0 2.559.856 2.559 2.946h.398v-6.442h-.398c0 2.055-.223 2.895-2.559 2.895h-2.336v-6.13697c0-.836.047-.961 1.036-.961h3.386c3.832 0 4.278 1.52301 4.625 4.79697h.446l-.594-5.47697h-12.539v.68c1.754 0 2.035 0 2.035 1.11297v13.364c0 1.1131-.277 1.1131-2.035 1.1131v.5979h12.887"/><path d="m33.82 7.51202 3.664-5.29699c.367-.52002 1.113-1.59003 3.145-1.617008v-.598022c-.567.0469971-1.508.0469971-2.102.0469971-.816 0-1.832 0-2.449-.0469971v.598022c.793.073975.988.570008.988.968998 0 .29602-.121.49603-.297.742l-3.269 4.74201-3.664-5.36298c-.172-.27002-.196-.34802-.196-.422 0-.22302.27-.645017 1.09-.668028v-.598022c-.793.0469971-2.004.0469971-2.82.0469971-.641 0-1.879 0-2.477-.0469971v.598022c1.36 0 1.805.051026 2.352.820008l4.777 7.01599-4.308 6.29308c-1.063 1.539-2.672 1.5659-3.145 1.5659v.5981c.566-.047 1.508-.047 2.102-.047.668 0 1.832 0 2.449.047v-.5981c-.766-.0739-.988-.57-.988-.969 0-.32.121-.496.246-.672l3.961-5.78097 4.308 6.33197c.195.2741.195.348.195.422 0 .195-.222.621-1.089.672v.598c.793-.047 2.004-.047 2.82-.047.641 0 1.879 0 2.48.047v-.598c-1.586 0-1.836-.121-2.328-.8199"/></g></g></svg>